:SAMPLES-PER-SECOND 30
:FULLY-SPECIFIED
:DEGREES
358
root  16.7776 33.3576 -29.9315 -19.8003 76.6381 -28.8084
RightUpLeg  -29.7407 9.41197 4.65177
RightLeg  11.7179 27.3411 3.72441
RightFoot  21.1474 -1.95484 10.8168
RightToes  -52.9997 -0.329737 -0.376198
Spine  -0.574997 -2.69858 0.130507
Spine1  -1.2695 -5.25172 0.939835
HEad  -67.5439 -32.0214 32.4546
LeftShoulder1  -1.94126e-019 -3.10601e-018 -2.51263e-017
LeftArm  -0.963217 30.905 -66.2077
LeftForeArm  22.2891 -36.5714 -6.92124
LeftHand  -0.214677 -4.16866 2.88455
RightShoulder  -4.96962e-017 0 -2.36833e-017
RightArm  -16.9051 4.55749 65.3888
RightForeArm  47.4899 64.6765 18.9706
RightHand  -0.469238 1.31363 -8.26574
LeftUpLeg  -8.94405 -6.43057 1.06025
LeftLeg  29.4536 8.7575 4.19981
LeftFoot  -19.895 -0.586379 -3.18098
LeftToes  3.84318 1.9075e-006 4.29692e-008
359
root  15.5765 33.428 -29.8589 -15.5202 75.224 -24.8776
RightUpLeg  -31.1305 1.19209 7.46945
RightLeg  9.22465 36.6916 3.34386
RightFoot  24.1809 -3.75792 17.7159
RightToes  -61.1119 -0.405068 -0.40098
Spine  -0.0825293 -3.70537 -0.215873
Spine1  -0.285299 -7.28222 0.200823
HEad  -65.9075 -40.3985 33.7718
LeftShoulder1  -1.94126e-019 -3.10601e-018 -2.51263e-017
LeftArm  4.17677 23.5274 -61.1121
LeftForeArm  19.6029 -36.1705 -6.97977
LeftHand  -0.383325 -2.3483 5.95804
RightShoulder  -4.96962e-017 0 -2.36833e-017
RightArm  -36.9513 0.451497 73.882
RightForeArm  47.8083 65.1821 19.4507
RightHand  -0.442542 -1.89748 -14.54
LeftUpLeg  -12.9939 -5.29767 1.53591
LeftLeg  33.0555 8.76098 4.89504
LeftFoot  -18.3755 -0.51826 -3.04181
LeftToes  1.14453 1.9075e-006 4.29692e-008
360
root  14.5899 33.6273 -29.7604 -10.1052 71.1633 -19.3879
RightUpLeg  -31.3722 -0.767544 8.63743
RightLeg  6.39055 34.1185 1.54193
RightFoot  21.4941 -2.65955 14.2694
RightToes  -59.3648 -0.388559 -0.396548
Spine  0.291152 -3.03442 -0.39566
Spine1  0.466702 -5.91881 -0.261338
HEad  -64.1973 -48.9886 29.9481
LeftShoulder1  -1.94126e-019 -3.10601e-018 -2.51263e-017
LeftArm  5.84176 15.5913 -57.5972
LeftForeArm  23.0103 -37.3648 -7.11004
LeftHand  -0.231074 -0.493949 4.64544
RightShoulder  -4.96962e-017 0 -2.36833e-017
RightArm  -55.7223 -6.67453 80.3546
RightForeArm  43.3392 67.7641 23.1951
RightHand  0.112692 -6.10709 -19.9894
LeftUpLeg  -13.4494 4.25811 2.39427
LeftLeg  31.2783 4.29289 2.23592
LeftFoot  -16.0857 -0.192894 -1.20352
LeftToes  -4.3153 1.9075e-006 4.29692e-008
361
root  13.7812 33.8909 -29.7114 -5.5838 66.5014 -14.7701
RightUpLeg  -30.416 -2.39125 8.70019
RightLeg  3.75108 28.069 0.0472788
RightFoot  17.3088 -1.32399 9.05218
RightToes  -59.2145 -0.387146 -0.396144
Spine  0.326827 -2.36384 -0.348231
Spine1  0.556612 -4.61372 -0.166484
HEad  -61.7521 -54.3892 23.6171
LeftShoulder1  -1.94126e-019 -3.10601e-018 -2.51263e-017
LeftArm  0.686264 9.56137 -56.1835
LeftForeArm  25.3888 -38.6059 -7.32159
LeftHand  -0.25031 -0.0385814 5.40365
RightShoulder  -4.96962e-017 0 -2.36833e-017
RightArm  -66.1725 -14.0602 81.7178
RightForeArm  28.6769 64.96 21.6654
RightHand  1.46747 -11.3783 -27.9387
LeftUpLeg  -12.7986 9.46027 2.18584
LeftLeg  28.4384 4.14064 1.90279
LeftFoot  -13.6891 -0.133065 -0.94703
LeftToes  -6.43998 1.9075e-006 4.29692e-008
362
root  13.1211 34.2052 -29.6787 -3.25781 63.1586 -12.8339
RightUpLeg  -29.6106 -8.85548 9.78323
RightLeg  3.13612 23.4506 -0.20692
RightFoot  16.0617 -0.910552 6.84808
RightToes  -56.8673 -0.365213 -0.389344
Spine  0.0553645 -2.31588 -0.0672056
Spine1  0.0689979 -4.55899 0.445725
HEad  -59.6907 -56.8154 18.5587
LeftShoulder1  -1.94126e-019 -3.10601e-018 -2.51263e-017
LeftArm  -8.06731 6.29023 -55.6459
LeftForeArm  26.5334 -42.7934 -8.56208
LeftHand  -0.295901 0.369392 6.86302
RightShoulder  -4.96962e-017 0 -2.36833e-017
RightArm  -69.3918 -19.5009 77.3235
RightForeArm  16.4062 51.1103 12.627
RightHand  1.69049 -12.4268 -27.3928
LeftUpLeg  -12.4595 9.45816 1.9689
LeftLeg  25.5992 7.30672 2.92557
LeftFoot  -10.9983 -0.14818 -1.37753
LeftToes  -7.21651 1.9075e-006 4.29692e-008
363
root  12.5641 34.5095 -29.6052 -0.793961 60.4588 -10.8419
RightUpLeg  -28.6837 -12.7744 8.16807
RightLeg  4.36347 16.2805 0.196348
RightFoot  16.8652 -0.654039 4.85517
RightToes  -49.9125 -0.302106 -0.364006
Spine  -0.408806 -2.52093 0.0470444
Spine1  -0.818488 -5.01366 0.733881
HEad  -59.6393 -56.9546 16.9972
LeftShoulder1  -1.94126e-019 -3.10601e-018 -2.51263e-017
LeftArm  -16.5143 5.30874 -55.0826
LeftForeArm  26.4898 -49.0053 -10.9089
LeftHand  -0.3963 0.461057 9.36227
RightShoulder  -4.96962e-017 0 -2.36833e-017
RightArm  -65.8815 -22.114 68.4888
RightForeArm  20.0022 25.4504 4.3546
RightHand  0.330322 -7.80963 -16.6952
LeftUpLeg  -11.7426 9.65486 1.5441
LeftLeg  21.9706 9.8571 3.23513
LeftFoot  -7.87392 -0.100948 -1.3052
LeftToes  -8.82568 1.9075e-006 4.29692e-008
364
root  12.0399 34.5827 -29.3881 0.700302 57.2593 -9.40503
RightUpLeg  -28.4127 -14.4413 5.35898
RightLeg  9.49512 8.36975 0.851019
RightFoot  15.2386 -0.218963 2.13023
RightToes  -43.0017 -0.242896 -0.331443
Spine  -0.964514 -2.66994 0.597725
Spine1  -1.84931 -5.57794 1.70673
HEad  -60.7881 -55.6032 17.1743
LeftShoulder1  -1.94126e-019 -3.10601e-018 -2.51263e-017
LeftArm  -22.8861 5.57008 -54.777
LeftForeArm  24.5894 -54.5479 -13.791
LeftHand  -0.526791 0.718155 13.1063
RightShoulder  -4.96962e-017 0 -2.36833e-017
RightArm  -59.209 -24.3576 59.3064
RightForeArm  39.7834 6.95475 1.21718
RightHand  -0.12295 -2.50337 -4.4967
LeftUpLeg  -11.5568 10.5434 1.60053
LeftLeg  21.024 12.0405 3.72407
LeftFoot  -6.52424 -0.0893648 -1.40626
LeftToes  -10.3258 1.9075e-006 4.29692e-008
365
root  11.5886 34.6331 -29.1297 1.43571 53.8709 -8.28195
RightUpLeg  -26.4547 -17.0869 2.55224
RightLeg  12.459 2.57764 0.39847
RightFoot  13.4316 0.00212199 0.508397
RightToes  -39.5808 -0.215143 -0.312742
Spine  -1.27518 -2.84515 1.10548
Spine1  -2.45106 -6.11953 2.85085
HEad  -63.7135 -52.8019 18.9404
LeftShoulder1  -1.94126e-019 -3.10601e-018 -2.51263e-017
LeftArm  -27.989 5.34746 -54.9317
LeftForeArm  23.7261 -58.0163 -16.0727
LeftHand  -0.568844 1.03501 15.1503
RightShoulder  -4.96962e-017 0 -2.36833e-017
RightArm  -36.1983 -29.5626 54.0937
RightForeArm  66.8745 4.70545 0.786498
RightHand  0.380477 2.57073 5.34556
LeftUpLeg  -10.5148 10.6234 1.82789
LeftLeg  19.7913 15.1038 4.30095
LeftFoot  -5.17297 -0.0713682 -1.41822
LeftToes  -12.7207 1.9075e-006 4.29692e-008
366
root  11.1031 34.6187 -28.8165 2.54469 50.1086 -6.76421
RightUpLeg  -24.7319 -19.3781 -0.622829
RightLeg  15.4062 -1.75385 -0.363886
RightFoot  11.8548 0.10676 -0.476746
RightToes  -34.7786 -0.178173 -0.283769
Spine  -1.44908 -2.85479 1.22262
Spine1  -2.74754 -6.32262 3.19654
HEad  -67.5744 -49.5229 23.3155
LeftShoulder1  -1.94126e-019 -3.10601e-018 -2.51263e-017
LeftArm  -31.0286 4.28385 -53.9729
LeftForeArm  25.3567 -60.3035 -17.6587
LeftHand  -0.534385 1.88538 17.6003
RightShoulder  -4.96962e-017 0 -2.36833e-017
RightArm  -21.0442 -33.9122 52.3157
RightForeArm  84.1433 2.80874 0.402779
RightHand  0.562865 2.88363 7.66949
LeftUpLeg  -9.80454 11.232 1.83648
LeftLeg  19.3309 17.9576 4.93357
LeftFoot  -4.09776 -0.054456 -1.36052
LeftToes  -15.2623 1.9075e-006 4.29692e-008
367
root  10.5264 34.5803 -28.3897 3.41998 45.348 -5.64661
RightUpLeg  -24.2606 -23.5001 -2.31412
RightLeg  18.8258 -4.58503 -1.24012
RightFoot  10.2966 0.145421 -1.04287
RightToes  -27.9088 -0.129789 -0.237172
Spine  -1.82294 -2.99693 1.33833
Spine1  -3.43666 -6.95389 3.54982
HEad  -68.2148 -46.0422 26.0292
LeftShoulder1  -1.94126e-019 -3.10601e-018 -2.51263e-017
LeftArm  -32.9197 4.58053 -51.9925
LeftForeArm  26.7596 -60.8391 -17.9698
LeftHand  -0.455614 2.59562 18.7384
RightShoulder  -4.96962e-017 0 -2.36833e-017
RightArm  -13.6359 -38.1851 51.0746
RightForeArm  94.3267 1.4756 0.129337
RightHand  0.0251584 -3.62045 3.08859
LeftUpLeg  -9.25256 14.105 2.337
LeftLeg  19.3642 19.4611 5.34118
LeftFoot  -3.10488 -0.0359424 -1.16456
LeftToes  -18.2675 1.9075e-006 4.29692e-008
368
root  9.91698 34.5234 -27.8593 4.42752 39.4741 -4.26384
RightUpLeg  -24.8341 -29.4378 -2.9578
RightLeg  22.0938 -6.63182 -2.20342
RightFoot  7.55319 0.117302 -1.18804
RightToes  -24.4116 -0.107392 -0.211311
Spine  -2.26626 -3.29218 1.42064
Spine1  -4.30144 -7.85475 3.8068
HEad  -65.26 -42.4418 25.5189
LeftShoulder1  -1.94126e-019 -3.10601e-018 -2.51263e-017
LeftArm  -33.7064 7.1783 -49.1884
LeftForeArm  26.1022 -59.0429 -16.622
LeftHand  -0.501217 2.36587 19.0828
RightShoulder  -4.96962e-017 0 -2.36833e-017
RightArm  -13.4954 -41.7339 48.6765
RightForeArm  93.035 1.84697 0.19908
RightHand  0.115612 -7.73126 -7.33298
LeftUpLeg  -8.22459 17.6664 2.72764
LeftLeg  19.1917 21.3812 5.77452
LeftFoot  -1.71985 -0.0139721 -0.769265
LeftToes  -21.8356 1.9075e-006 4.29692e-008
369
root  9.20463 34.4533 -27.2005 4.91154 32.8183 -3.41159
RightUpLeg  -25.6558 -34.668 -2.52456
RightLeg  24.4871 -8.65175 -3.27375
RightFoot  5.18547 0.0783752 -1.12298
RightToes  -22.8943 -0.0981741 -0.199676
Spine  -2.52289 -3.57988 1.65324
Spine1  -4.89259 -8.52927 4.30135
HEad  -61.3411 -38.9053 22.9284
LeftShoulder1  -1.94126e-019 -3.10601e-018 -2.51263e-017
LeftArm  -33.1504 11.5687 -46.3898
LeftForeArm  24.3839 -55.3788 -14.3379
LeftHand  -0.520522 2.17617 18.6673
RightShoulder  -4.96962e-017 0 -2.36833e-017
RightArm  -26.8601 -43.1147 46.1991
RightForeArm  87.0454 2.35681 0.308131
RightHand  0.129525 -6.48975 -15.4842
LeftUpLeg  -6.63997 21.7452 3.80535
LeftLeg  19.0578 23.4308 6.23793
LeftFoot  -0.183545 -0.000553985 -0.18417
LeftToes  -25.2421 1.9075e-006 4.29692e-008
370
root  8.37838 34.33 -26.4915 5.32161 25.8436 -2.70517
RightUpLeg  -27.1397 -39.4248 -1.24341
RightLeg  27.0243 -10.2447 -4.39226
RightFoot  2.25972 0.026362 -0.699371
RightToes  -19.4261 -0.0782823 -0.172192
Spine  -2.58271 -3.96741 1.80735
Spine1  -5.08484 -9.27809 4.60606
HEad  -58.1677 -34.9776 20.1977
LeftShoulder1  -1.94126e-019 -3.10601e-018 -2.51263e-017
LeftArm  -30.9827 16.7722 -43.5286
LeftForeArm  21.9831 -50.1795 -11.8123
LeftHand  -0.484495 2.23521 17.6855
RightShoulder  -4.96962e-017 0 -2.36833e-017
RightArm  -34.7209 -42.9305 45.46
RightForeArm  66.9584 4.38221 0.713393
RightHand  -0.198019 -3.43501 -11.0648
LeftUpLeg  -4.87526 24.8074 5.10117
LeftLeg  19.3814 26.3988 7.12093
LeftFoot  1.61477 -0.00757427 0.699054
LeftToes  -29.1648 1.9075e-006 4.29692e-008
371
root  7.40056 34.1307 -25.7437 5.67932 18.7046 -2.38678
RightUpLeg  -29.0778 -43.0215 0.993803
RightLeg  30.0378 -12.522 -6.13534
RightFoot  -2.47393 -0.0036933 0.421757
RightToes  -14.2521 -0.0517862 -0.129078
Spine  -2.5596 -4.19772 1.96543
Spine1  -5.11291 -9.69538 4.91457
HEad  -56.3279 -31.347 18.2646
LeftShoulder1  -1.94126e-019 -3.10601e-018 -2.51263e-017
LeftArm  -26.8155 21.1542 -41.4207
LeftForeArm  20.185 -42.917 -9.0584
LeftHand  -0.525314 1.53613 15.7615
RightShoulder  -4.96962e-017 0 -2.36833e-017
RightArm  -43.3464 -42.7161 46.404
RightForeArm  51.6089 6.89717 1.19351
RightHand  -0.0415181 -3.45644 -1.41819
LeftUpLeg  -3.13044 27.0297 6.90268
LeftLeg  20.5039 29.4823 8.4608
LeftFoot  3.57276 -0.0553253 1.93538
LeftToes  -33.8744 1.9075e-006 4.29692e-008
372
root  6.25689 33.8448 -24.957 6.0714 11.3712 -2.40048
RightUpLeg  -30.516 -43.9506 3.19513
RightLeg  33.4408 -14.8709 -8.35277
RightFoot  -6.90984 0.0817882 1.98483
RightToes  -6.8421 -0.0208465 -0.0635707
Spine  -2.52969 -4.20507 2.0949
Spine1  -5.1199 -9.68323 5.16676
HEad  -55.0544 -27.9889 17.1875
LeftShoulder1  -1.94126e-019 -3.10601e-018 -2.51263e-017
LeftArm  -21.5342 24.2323 -40.5865
LeftForeArm  19.2839 -34.2304 -6.50425
LeftHand  -0.536281 0.783467 13.5254
RightShoulder  -4.96962e-017 0 -2.36833e-017
RightArm  -49.2948 -42.2211 48.6364
RightForeArm  46.9531 8.19472 1.40654
RightHand  0.00268384 -3.00102 0.955259
LeftUpLeg  -1.49632 28.9582 9.25859
LeftLeg  22.9423 31.9965 10.4865
LeftFoot  5.7628 -0.172218 3.58223
LeftToes  -38.5187 1.9075e-006 4.29692e-008
